<?xml version="1.0" encoding="utf-8"?>
<!-- Generator: Adobe Illustrator 16.0.4, SVG Export Plug-In . SVG Version: 6.00 Build 0)  -->
<!DOCTYPE svg PUBLIC "-//W3C//DTD SVG 1.1//EN" "http://www.w3.org/Graphics/SVG/1.1/DTD/svg11.dtd">
<svg version="1.1" id="Layer_1" xmlns="http://www.w3.org/2000/svg" xmlns:xlink="http://www.w3.org/1999/xlink" x="0px" y="0px"
	 width="646.25px" height="648px" viewBox="0 0 646.25 648" enable-background="new 0 0 646.25 648" xml:space="preserve">
<path fill="none" stroke="#666666" stroke-width="13.32" stroke-linecap="round" stroke-miterlimit="10" d="M335.292,193.163
	c-3.339-74.003-7.901-119.311-7.901-119.311"/>
<path fill="none" stroke="#666666" stroke-width="13.32" stroke-linecap="round" stroke-miterlimit="10" d="M328.094,82.735
	c-0.198-17.802-8.019-25.747,11.919-22.36c19.936,3.388,65.723,5.345,51.071,10.803C376.432,76.637,328.298,101.061,328.094,82.735z
	"/>
<g id="Layer_2">
</g>
<path fill="none" stroke="#666666" stroke-width="13.32" stroke-linecap="round" stroke-miterlimit="10" d="M321.863,568.35
	c19.186-140.689,38.37-220.628,55.957-227.021c17.586-6.395,118.187-11.623,148.031,0c29.845,11.622,62.887,205.613,66.084,220.535
	C595.133,576.785,329.986,598.283,321.863,568.35z"/>
<g>
	<path fill="none" stroke="#666666" stroke-width="13.32" stroke-linecap="round" stroke-miterlimit="10" d="M112.099,503.928
		c4.298,3.432,12.121,4.936,17.385,3.341l27.58-8.354c5.264-1.595,7.986,1.312,6.05,6.46l-10.146,26.973
		c-1.936,5.147-0.949,13.053,2.194,17.565l16.468,23.65c3.143,4.513,1.219,8.001-4.275,7.75l-28.786-1.314
		c-5.495-0.251-12.708,3.131-16.029,7.515l-17.403,22.969c-3.321,4.384-7.233,3.632-8.692-1.671l-7.646-27.785
		c-1.459-5.303-6.904-11.117-12.1-12.921l-27.223-9.451c-5.196-1.804-5.689-5.756-1.097-8.782l24.062-15.859
		c4.592-3.026,8.44-10.002,8.55-15.501l0.577-28.811c0.11-5.499,3.717-7.189,8.015-3.758L112.099,503.928z"/>
</g>
<path fill="none" stroke="#666666" stroke-width="13.32" stroke-linecap="round" stroke-miterlimit="10" d="M393.925,583.244
	c7.267-63.877,23.847-113.439,58.723-116.637c33.277,0,54.061,49.561,62.424,111.271"/>
<g>
	<g>
		<path fill="#666666" d="M148.595,447.654c7.139,0,7.139-11.07,0-11.07S141.456,447.654,148.595,447.654L148.595,447.654z"/>
	</g>
</g>
<g>
	<g>
		<path fill="#666666" d="M247.712,421.758c7.139,0,7.139-11.07,0-11.07S240.574,421.758,247.712,421.758L247.712,421.758z"/>
	</g>
</g>
<g>
	<g>
		<path fill="#666666" d="M303.673,457.76c7.139,0,7.139-11.07,0-11.07S296.535,457.76,303.673,457.76L303.673,457.76z"/>
	</g>
</g>
<g>
	<g>
		<path fill="#666666" d="M268.908,500.92c7.139,0,7.139-11.07,0-11.07S261.77,500.92,268.908,500.92L268.908,500.92z"/>
	</g>
</g>
<g>
	<g>
		<path fill="#666666" d="M214.879,512.117c7.139,0,7.139-11.07,0-11.07S207.74,512.117,214.879,512.117L214.879,512.117z"/>
	</g>
</g>
<g>
	<g>
		<path fill="#666666" d="M297.273,398.6c7.139,0,7.139-11.07,0-11.07S290.135,398.6,297.273,398.6L297.273,398.6z"/>
	</g>
</g>
<g>
	<g>
		<path fill="#666666" d="M202.271,453.492c7.139,0,7.139-11.07,0-11.07S195.133,453.492,202.271,453.492L202.271,453.492z"/>
	</g>
</g>
<g>
	<g>
		<path fill="#666666" d="M247.712,366.625c7.139,0,7.139-11.07,0-11.07S240.574,366.625,247.712,366.625L247.712,366.625z"/>
	</g>
</g>
<g>
	<g>
		<path fill="#666666" d="M158.365,366.625c7.139,0,7.139-11.07,0-11.07S151.226,366.625,158.365,366.625L158.365,366.625z"/>
	</g>
</g>
<g>
	<g>
		<path fill="#666666" d="M278.75,335.035c7.139,0,7.139-11.07,0-11.07S271.611,335.035,278.75,335.035L278.75,335.035z"/>
	</g>
</g>
<g>
	<g>
		<path fill="#666666" d="M192.863,400.602c7.139,0,7.139-11.07,0-11.07S185.724,400.602,192.863,400.602L192.863,400.602z"/>
	</g>
</g>
<g>
	<g>
		<path fill="#666666" d="M202.271,335.035c7.139,0,7.139-11.07,0-11.07S195.133,335.035,202.271,335.035L202.271,335.035z"/>
	</g>
</g>
<g>
	<g>
		<path fill="#666666" d="M367.618,550.479c7.139,0,7.139-11.07,0-11.07S360.479,550.479,367.618,550.479L367.618,550.479z"/>
	</g>
</g>
<g>
	<g>
		<path fill="#666666" d="M417.179,431.555c7.139,0,7.139-11.07,0-11.07S410.04,431.555,417.179,431.555L417.179,431.555z"/>
	</g>
</g>
<g>
	<g>
		<path fill="#666666" d="M535.878,512.117c7.139,0,7.139-11.07,0-11.07S528.74,512.117,535.878,512.117L535.878,512.117z"/>
	</g>
</g>
<g>
	<g>
		<path fill="#666666" d="M362.174,506.116c7.139,0,7.139-11.07,0-11.07S355.036,506.116,362.174,506.116L362.174,506.116z"/>
	</g>
</g>
<g>
	<g>
		<path fill="#666666" d="M391.924,479.035c7.139,0,7.139-11.07,0-11.07S384.785,479.035,391.924,479.035L391.924,479.035z"/>
	</g>
</g>
<g>
	<g>
		<path fill="#666666" d="M371.622,445.038c7.139,0,7.139-11.07,0-11.07S364.483,445.038,371.622,445.038L371.622,445.038z"/>
	</g>
</g>
<g>
	<g>
		<path fill="#666666" d="M483.75,447.654c7.139,0,7.139-11.07,0-11.07S476.611,447.654,483.75,447.654L483.75,447.654z"/>
	</g>
</g>
<g>
	<g>
		<path fill="#666666" d="M490.96,369.628c7.139,0,7.139-11.07,0-11.07S483.821,369.628,490.96,369.628L490.96,369.628z"/>
	</g>
</g>
<g>
	<g>
		<path fill="#666666" d="M454.499,400.602c7.139,0,7.139-11.07,0-11.07S447.36,400.602,454.499,400.602L454.499,400.602z"/>
	</g>
</g>
<g>
	<g>
		<path fill="#666666" d="M415.177,369.627c7.139,0,7.139-11.07,0-11.07S408.038,369.627,415.177,369.627L415.177,369.627z"/>
	</g>
</g>
<g>
	<g>
		<path fill="#666666" d="M379.238,397c7.139,0,7.139-11.07,0-11.07S372.1,397,379.238,397L379.238,397z"/>
	</g>
</g>
<g>
	<g>
		<path fill="#666666" d="M524.294,397c7.139,0,7.139-11.07,0-11.07S517.156,397,524.294,397L524.294,397z"/>
	</g>
</g>
<g>
	<g>
		<path fill="#666666" d="M535.878,457.76c7.139,0,7.139-11.07,0-11.07S528.739,457.76,535.878,457.76L535.878,457.76z"/>
	</g>
</g>
<g>
	<g>
		<path fill="#666666" d="M342.981,233.922c7.139,0,7.139-11.07,0-11.07S335.843,233.922,342.981,233.922L342.981,233.922z"/>
	</g>
</g>
<g>
	<g>
		<path fill="#666666" d="M289.75,233.922c7.139,0,7.139-11.07,0-11.07S282.611,233.922,289.75,233.922L289.75,233.922z"/>
	</g>
</g>
<g>
	<g>
		<path fill="#666666" d="M368.18,275.037c7.139,0,7.139-11.07,0-11.07S361.042,275.037,368.18,275.037L368.18,275.037z"/>
	</g>
</g>
<g>
	<g>
		<path fill="#666666" d="M323.125,273.035c7.139,0,7.139-11.07,0-11.07S315.986,273.035,323.125,273.035L323.125,273.035z"/>
	</g>
</g>
<g>
	<g>
		<path fill="#666666" d="M268.908,273.035c7.139,0,7.139-11.07,0-11.07S261.77,273.035,268.908,273.035L268.908,273.035z"/>
	</g>
</g>
<g>
	<g>
		<path fill="#666666" d="M350.75,325.035c7.139,0,7.139-11.07,0-11.07S343.611,325.035,350.75,325.035L350.75,325.035z"/>
	</g>
</g>
<g>
	<g>
		<path fill="#666666" d="M391.923,313.093c7.139,0,7.139-11.07,0-11.07S384.785,313.093,391.923,313.093L391.923,313.093z"/>
	</g>
</g>
<g>
	<g>
		<path fill="#666666" d="M393.926,237.926c7.139,0,7.139-11.07,0-11.07S386.787,237.926,393.926,237.926L393.926,237.926z"/>
	</g>
</g>
<g>
	<g>
		<path fill="#666666" d="M417.179,285.088c7.139,0,7.139-11.07,0-11.07S410.04,285.088,417.179,285.088L417.179,285.088z"/>
	</g>
</g>
<g>
	<g>
		<path fill="#666666" d="M557.236,553.066c7.139,0,7.139-11.07,0-11.07S550.098,553.066,557.236,553.066L557.236,553.066z"/>
	</g>
</g>
<path fill="none" stroke="#666666" stroke-width="13.32" stroke-linecap="round" stroke-miterlimit="10" d="M377.819,341.328
	c9.834-3.576,45.627-6.786,80.49-6.89c-13.022-59.062-31.477-127.617-48.849-134.383c-29.845-11.623-130.446-6.395-148.032,0
	c-10.78,3.92-22.161,35.483-33.775,91.727c29.119-0.322,58.456,1.432,72.384,6.855c16.296,6.346,33.544,67.064,46.367,123.315
	C357.199,372.66,367.771,344.981,377.819,341.328z"/>
<path fill="none" stroke="#666666" stroke-width="13.32" stroke-linecap="round" stroke-linejoin="round" stroke-miterlimit="10" d="
	M346.405,421.951c-12.823-56.25-30.072-116.967-46.368-123.313c-29.845-11.623-130.446-6.395-148.032,0
	c-16.248,5.908-33.86,74.597-51.577,195.968l19.484,15.562l46.721-14.152l-16.503,43.876c52.442,2.884,130.577-2.334,177.101-9.324
	C333.66,487.234,340.071,450.875,346.405,421.951z"/>
</svg>
