<?xml version="1.0" encoding="utf-8"?>
<!-- Generator: Adobe Illustrator 16.0.4, SVG Export Plug-In . SVG Version: 6.00 Build 0)  -->
<!DOCTYPE svg PUBLIC "-//W3C//DTD SVG 1.1//EN" "http://www.w3.org/Graphics/SVG/1.1/DTD/svg11.dtd">
<svg version="1.1" id="Layer_1" xmlns="http://www.w3.org/2000/svg" xmlns:xlink="http://www.w3.org/1999/xlink" x="0px" y="0px"
	 width="646.25px" height="648px" viewBox="0 0 646.25 648" enable-background="new 0 0 646.25 648" xml:space="preserve">
<g id="Layer_2">
</g>
<g id="Sunglasses_1_">
	<path fill="#535353" d="M227.802,414.793c37.832,0.11,63.339-36.266,63.398-56.88l-118.819-0.35
		C172.319,378.264,193.11,414.689,227.802,414.793z"/>
	<path fill="#535353" d="M409.109,415.853c37.831,0.11,63.338-36.265,63.399-56.88l-118.821-0.35
		C353.626,379.322,374.417,415.75,409.109,415.853z"/>
	<path fill="#535353" d="M140.072,329.326c-0.169,56.674,23.276,90.924,56.63,108.492c32.583,14.081,65.248-1.525,65.248-1.525
		l-0.001-0.006c31.408-13.582,54.802-45.712,60.244-87.864c4.361,46.019,26.163,74.837,55.815,90.455
		c32.584,14.081,65.249-1.525,65.249-1.525l-0.002-0.006c32.989-14.266,60.626-45.769,62.68-106.364L140.072,329.326z
		 M244.125,426.227c-8.567,1.928-24.839,3.085-33.623,0.432c-29.91-9.73-55.919-44.819-54.925-83.51l153.774,0.452
		C309.154,387.695,278.451,417.509,244.125,426.227z M425.432,427.287c-8.568,1.928-24.84,3.085-33.624,0.431
		c-29.91-9.729-55.92-44.819-54.924-83.511l153.774,0.452c-0.016,3.128-1.432,15.722-1.432,15.722
		C482.792,395.819,455.503,419.649,425.432,427.287z"/>
</g>
<path fill="none" stroke="#535353" stroke-width="13.32" stroke-linecap="round" stroke-miterlimit="10" d="M542.548,404.916
	c0,79.088-98.752,106.438-220.566,106.438s-220.566-27.351-220.566-106.438c0-128.721,98.752-143.203,220.566-143.203
	S542.548,276.195,542.548,404.916z"/>
<path fill="none" stroke="#535353" stroke-width="13.32" stroke-linecap="round" stroke-miterlimit="10" d="M121.162,321.591
	c0,0-94.787-19.456-66.916-96.505"/>
<path fill="none" stroke="#535353" stroke-width="13.32" stroke-linecap="round" stroke-miterlimit="10" d="M537.831,443.318
	c0,0,96.384-8.545,91.782,73.262"/>
<path fill="none" stroke="#535353" stroke-width="13.32" stroke-linecap="round" stroke-miterlimit="10" d="M504.055,474.851
	c0,0,96.385-8.545,91.782,73.262"/>
<path fill="none" stroke="#535353" stroke-width="13.32" stroke-linecap="round" stroke-miterlimit="10" d="M448.604,497.532
	c0,0,96.385-8.545,91.781,73.262"/>
<path fill="none" stroke="#535353" stroke-width="13.32" stroke-linecap="round" stroke-miterlimit="10" d="M521.084,321.591
	c0,0,94.787-19.456,66.916-96.505"/>
<path fill="none" stroke="#535353" stroke-width="13.32" stroke-linecap="round" stroke-miterlimit="10" d="M104.415,443.318
	c0,0-96.384-8.545-91.782,73.262"/>
<path fill="none" stroke="#535353" stroke-width="13.32" stroke-linecap="round" stroke-miterlimit="10" d="M138.191,474.851
	c0,0-96.385-8.545-91.782,73.262"/>
<path fill="none" stroke="#535353" stroke-width="13.32" stroke-linecap="round" stroke-miterlimit="10" d="M193.643,497.532
	c0,0-96.385-8.545-91.781,73.262"/>
<path fill="none" stroke="#535353" stroke-width="13.32" stroke-linecap="round" stroke-miterlimit="10" d="M289.572,462.98
	c18,9.428,55.135,20.572,73.568,0"/>
<path fill="none" stroke="#535353" stroke-width="13.32" stroke-linecap="round" stroke-miterlimit="10" d="M48.906,217.736
	c-34-68,110.514-157.864,145-132c24,18-26.722,48-19,66c5.26,12.261,51.904-25.044,61,3
	C247.906,191.736,112.183,319.157,48.906,217.736z"/>
<path fill="none" stroke="#535353" stroke-width="13.32" stroke-linecap="round" stroke-miterlimit="10" d="M594.578,213.756
	c34-68-110.514-157.864-145-132c-24,18,26.721,48,19,66c-5.26,12.261-51.904-25.044-61,3
	C395.578,187.756,531.301,315.176,594.578,213.756z"/>
<polygon fill="#535353" points="111,349.5 116.75,337 150.75,357.75 147.75,342.25 117.5,321.591 104.421,360 154.178,387.679 
	151.971,373.696 "/>
<polygon fill="#535353" points="534.967,350.501 529.217,338.001 495.217,358.751 498.217,343.251 528.467,322.592 541.546,361.001 
	491.789,388.68 493.996,374.697 "/>
</svg>
