<?xml version="1.0" encoding="utf-8"?>
<!-- Generator: Adobe Illustrator 16.0.4, SVG Export Plug-In . SVG Version: 6.00 Build 0)  -->
<!DOCTYPE svg PUBLIC "-//W3C//DTD SVG 1.1//EN" "http://www.w3.org/Graphics/SVG/1.1/DTD/svg11.dtd">
<svg version="1.1" id="Layer_1" xmlns="http://www.w3.org/2000/svg" xmlns:xlink="http://www.w3.org/1999/xlink" x="0px" y="0px"
	 width="646.25px" height="648px" viewBox="0 0 646.25 648" enable-background="new 0 0 646.25 648" xml:space="preserve">
<g id="Vectors">
	<g id="Floaty">
		<g>
			<ellipse fill="#666666" cx="145.308" cy="198.363" rx="12.387" ry="17.636"/>
			<path fill="#666666" d="M364.182,398.499c-13.054,0-52.487,20.687-52.487,33.738c0,13.055,39.435,13.532,52.487,13.532
				c13.055,0,48.513-10.582,48.513-23.636C412.695,409.079,377.237,398.499,364.182,398.499z"/>
			<path fill="#666666" d="M455.996,367.613c-6.314,1.192-23.499,14.806-22.306,21.118c1.191,6.312,20.312,2.941,26.626,1.748
				c6.315-1.191,22.5-9.555,21.308-15.868C480.429,368.296,462.31,366.417,455.996,367.613z"/>
			<path fill="#666666" d="M524.908,373.708c-4.575,2.959-10.123,14.242-7.213,18.742c2.909,4.502,13.174,0.514,17.75-2.443
				c4.575-2.959,14.647-14.646,11.737-19.145C544.274,366.363,529.484,370.749,524.908,373.708z"/>
		</g>
		<path fill="#666666" d="M578.417,330.411c-1.703-3.055-3.58-5.93-5.585-8.667c-0.326-19.077-9.958-69.883-43.207-95.977
			c-29.932-21.51-28.225,19.586-28.017,56.446c-69.088-12.758-159.088,10.649-196.8,24.458c-1.281-6.786-2.551-12.704-2.35-16.068
			c0.424-7.078,13.235-17.333,9.235-29.333s-28.955-18.577-15.901-38c6-8.927,8.667-46-13.334-48
			c-14.026-1.276-20.666-11.333-17.333-32c4.255-28.362-30.891-54.67-50.666-40c-7.577,5.621-20.293-0.174-31.334-10.667
			c-10.372-9.858-28.157-6.764-35.833,3.887c-10.79,14.372-8.974,16.897-30.501,20.779c-39.437,4.93-34.732,35.487-32.742,51.667
			c-10.403,14.716-19.542,31.909-26.855,51.305c-31.433,83.366,36.6,95.69,65.155,69.76c68.012-61.76,43.345,56.241,30.318,121.629
			c-39.679,199.184,248.211,134.244,339.566,105.594C583.588,488.57,628.405,420.042,578.417,330.411z M524.875,234.266
			c27.406,24.916,34.466,62.417,36.07,74.413c-12.915-11.509-29.234-19.15-47.463-23.856
			C510.576,250.504,509.104,220.63,524.875,234.266z M470.195,511.738c-156.5,47.167-329.5,48.734-306.5-86.5
			c7.188-42.261,14.648-79.12,15-106c0.773-59.132-20.379-75.39-66.333-33.002c-14.999,13.835-81.406,13.548-43.022-70.826
			c69.986-153.837,194.276-117.382,213.759,60.171c4.695,40.35-3.305,89.017,22.597,97.991c24.042,7.366,123-9.834,161.5-30.334
			s-1-33.75-24-33.75c-9.292,0-29-0.75-59.763,7.414c-7.237,1.836-3.237,10.336,2.321,8.39c18.618-4.433,29.562-6.872,46.69-7.053
			c9.115-0.097,64,2.5,15.051,22.303c-25.997,10.517-75.061,18.769-84.05,19.946c-16.452,2.158-41.874,7.291-52.625-0.125
			c-4.49-3.411-7.362-11.45-9.158-19.407c2.521-1.375,5-4.397,5.465-10.901c0.27-3.758,0.023-7.83-0.467-11.914
			c30.465-12.114,91.646-30.891,157.034-28.565c72.993,3.514,95.501,23.665,116.501,64.666
			C598.907,393.693,602.195,476.738,470.195,511.738z"/>
	</g>
</g>
<g id="Layer_2">
</g>
</svg>
