<?xml version="1.0" encoding="utf-8"?>
<!-- Generator: Adobe Illustrator 16.0.4, SVG Export Plug-In . SVG Version: 6.00 Build 0)  -->
<!DOCTYPE svg PUBLIC "-//W3C//DTD SVG 1.1//EN" "http://www.w3.org/Graphics/SVG/1.1/DTD/svg11.dtd">
<svg version="1.1" id="Layer_1" xmlns="http://www.w3.org/2000/svg" xmlns:xlink="http://www.w3.org/1999/xlink" x="0px" y="0px"
	 width="821.854px" height="560px" viewBox="0 0 821.854 560" enable-background="new 0 0 821.854 560" xml:space="preserve">
<ellipse fill="#666666" cx="223.727" cy="189.571" rx="15.246" ry="21.706"/>
<path fill="none" stroke="#666666" stroke-width="13.32" stroke-linecap="round" stroke-miterlimit="10" d="M72.928,246.298
	c-19.696-26.983-56.597-92.353,0.697-132.652c39.916-28.076,78.799,11.582,95.301,19.104c27.898,12.717,52.308-26.873,98.528,13.146
	c30.987,26.829,44.243,22.136,61.474,15.982c17.231-6.154,109.691-82.064,152.768-84.526c71.327-0.036-42.59,97.109,6.003,163.296
	c39.797,54.206,85.799,69.016,109.54,69.016c101.744,0,125.539-204.284,159.529-156.284c47.241,92.917-33.99,123.687-15.18,203.243
	c12.974,53.537,4.574,114.182-33.58,42.797c-38.154-71.386-41.132-44.309-80.518-7.385c-39.385,36.923-94.206,66.334-182.762,62.256
	c-69.031-3.179-56.188,34.453-49.338,60.822c5.701,21.944,3.363,44.076-43.078,22.154c-43.399-20.486-58.962-48.516-73.731-79.285
	C263.812,427.213,66.771,380.011,72.928,246.298z"/>
<path fill="none" stroke="#666666" stroke-width="13.32" stroke-linecap="round" stroke-miterlimit="10" d="M72.928,246.298
	c24.12,14.768,100.1,17.054,118.322,0"/>
<path fill="none" stroke="#666666" stroke-width="13.32" stroke-linecap="round" stroke-miterlimit="10" d="M238.973,320.649
	c3.8,35.692,2.797,63.212-38.548,84.529"/>
<path fill="none" stroke="#666666" stroke-width="13.32" stroke-linecap="round" stroke-miterlimit="10" d="M271.065,356.623
	c2.447,22.982,1.802,40.703-24.82,54.429"/>
<path fill="none" stroke="#666666" stroke-width="13.32" stroke-linecap="round" stroke-miterlimit="10" d="M298.479,382.449
	c1.602,15.046,1.179,26.645-16.249,35.632"/>
<g>
	<g>
		<path fill="#666666" d="M172.943,397.243c-7.68,17.18-5.426,38.816-2.978,56.902c2.512,18.56,6.625,38.809,19.006,53.521
			c4.526,5.378,10.895,8.511,17.931,7.524c5.884-0.824,10.843-5.21,14.574-9.549c9.989-11.615,16.099-26.206,23.467-39.489
			c1.979-3.567,4.063-7.082,6.408-10.423c0.852-1.214,0.993-1.389,2.303-2.829c0.523-0.576,1.089-1.11,1.666-1.632
			c0.883-0.799-0.841,0.491,0.706-0.482c7.346-4.623,0.578-16.309-6.813-11.656c-11.171,7.03-17.054,22.184-22.961,33.361
			c-3.578,6.771-7.208,13.543-11.525,19.88c-1.639,2.407-3.076,4.201-5.248,6.384c-1.836,1.844-3.232,2.704-4.605,3.115
			c-0.382,0.115-2.023,0.255-0.289,0.106c-0.345,0.029-2.06-0.115-0.316,0.127c-0.547-0.076-1.077-0.243-1.602-0.408
			c1.426,0.446-0.296-0.18-0.547-0.318c-1.917-1.061-4.235-3.893-5.946-6.498c-4.793-7.298-7.34-15.667-9.436-24.069
			c-4.688-18.793-7.482-40.378-4.056-59.618c0.394-2.209,1.39-5.95,1.919-7.134C188.122,396.181,176.491,389.309,172.943,397.243
			L172.943,397.243z"/>
	</g>
</g>
</svg>
